<svg xmlns="http://www.w3.org/2000/svg" width="900" height="205" viewBox="0 0 900 205" role="img" aria-labelledby="title desc"><title id="title">MasterRent</title><desc id="desc">A home search built for university life</desc><rect width="900" height="205" rx="19" fill="#14273d"/><rect x="1.5" y="1.5" width="897" height="202" rx="18" fill="none" stroke="#b5a7f4" stroke-opacity=".45" stroke-width="3"/><path d="M645 18v169" stroke="#8ab7ca" stroke-opacity=".22" stroke-width="2"/><text x="34" y="42" fill="#b5a7f4" font-family="Arial,sans-serif" font-size="14" font-weight="700" letter-spacing="2">02  /  WEB APPLICATION</text><text x="34" y="94" fill="#f7fbff" font-family="Arial,sans-serif" font-size="39" font-weight="700">MasterRent</text><text x="35" y="132" fill="#dcecf6" font-family="Arial,sans-serif" font-size="20">A home search built for university life</text><text x="35" y="173" fill="#9bdde3" font-family="Arial,sans-serif" font-size="14" font-weight="700" letter-spacing="1">PHP  ·  MYSQL / MARIADB  ·  HTML  ·  CSS  ·  JS</text><path d="M691 141c0-15 12-27 28-28 5-15 20-25 37-25 17 0 31 9 38 23 16 0 28 12 28 28 0 16-13 29-30 29h-72c-17 0-29-12-29-27z" fill="#26465e" stroke="#699caf" stroke-opacity=".65" stroke-width="2"/><rect x="711" y="46" width="150" height="126" rx="10" fill="#10253a" stroke="#b5a7f4" stroke-width="3"/><path d="M712 70h148" stroke="#355e71" stroke-width="3"/><circle cx="729" cy="58" r="4" fill="#b5a7f4"/><path d="M728 126l58-41 58 41v34H728z" fill="#2b4e62" stroke="#a9daec" stroke-width="3"/><path d="M770 159v-27h30v27m-62-29h20v16h-20zm72 0h20v16h-20z" fill="#143047" stroke="#b5a7f4" stroke-width="2"/></svg>